<svg role="img" viewBox="0 0 48 48" xmlns="http://www.w3.org/2000/svg"
    id="Coinmarketcap--Streamline-Simple-Icons.svg" height="48px" width="48px">
    <desc>Coinmarketcap Streamline Icon: https://streamlinehq.com</desc>
    <title>CoinMarketCap</title>
    <path
        d="M41.476 28.682c-0.838 0.53 -1.824 0.596 -2.572 0.174 -0.952 -0.54 -1.476 -1.796 -1.476 -3.548v-5.236c0 -2.528 -1 -4.328 -2.672 -4.814 -2.832 -0.826 -4.964 2.64 -5.764 3.944l-4.996 8.1v-9.9c-0.056 -2.28 -0.796 -3.642 -2.2 -4.054 -0.932 -0.27 -2.322 -0.162 -3.674 1.906l-11.194 17.974A19.75 19.75 0 0 1 4.652 24c0 -10.828 8.678 -19.636 19.344 -19.636 10.664 0 19.34 8.808 19.34 19.636 0.008 0.036 0.004 0.068 0.006 0.106 0.1 2.098 -0.58 3.766 -1.866 4.58zm6.16 -4.68 -0.002 -0.11C47.574 10.706 36.994 0 23.994 0 10.96 0 0.354 10.766 0.354 24c0 13.232 10.606 24 23.64 24 5.982 0 11.692 -2.274 16.074 -6.4 0.87 -0.82 0.92 -2.2 0.114 -3.082a2.128 2.128 0 0 0 -3.038 -0.118 19.12 19.12 0 0 1 -13.148 5.236c-5.712 0 -10.85 -2.526 -14.394 -6.536l10.096 -16.21v7.474c0 3.588 1.392 4.748 2.56 5.088 1.168 0.34 2.952 0.108 4.826 -2.936 1.996 -3.228 4.05 -6.594 6.046 -9.76v4.552c0 3.356 1.344 6.04 3.686 7.36 2.112 1.194 4.768 1.086 6.93 -0.28 2.624 -1.656 4.036 -4.708 3.888 -8.386z"
        fill="#000000" stroke-width="1"></path>
</svg>