<svg xmlns="http://www.w3.org/2000/svg" xmlns:xlink="http://www.w3.org/1999/xlink" width="48px"
    height="48px" viewBox="0 0 48 48" version="1.1">
    <g id="surface1">
        <path style=" stroke:none;fill-rule:nonzero;fill:#000000;fill-opacity:1;"
            d="M 22.335938 7.53125 C 17.691406 8.042969 13.496094 10.425781 10.75 14.097656 C 5.941406 20.550781 6.480469 29.582031 12.011719 35.371094 C 13.503906 36.933594 15.023438 38.042969 16.898438 38.933594 C 23.0625 41.878906 30.257812 40.75 35.289062 36.0625 C 41.410156 30.371094 42.246094 20.847656 37.222656 14.121094 C 34.605469 10.613281 30.898438 8.375 26.515625 7.648438 C 25.507812 7.488281 23.300781 7.417969 22.335938 7.53125 Z M 25.363281 8.800781 C 29.984375 9.246094 34.128906 11.707031 36.667969 15.539062 C 38.476562 18.269531 39.3125 21.234375 39.191406 24.546875 C 39.066406 28.125 37.921875 31.113281 35.605469 33.878906 C 33.589844 36.292969 30.734375 38.070312 27.667969 38.820312 C 27.195312 38.933594 26.78125 39.027344 26.738281 39.027344 C 26.59375 39.027344 26.746094 36.636719 26.933594 35.945312 C 27.453125 34.03125 28.65625 31.957031 30.503906 29.78125 C 30.957031 29.25 32.175781 27.980469 33.214844 26.945312 C 35.226562 24.949219 35.730469 24.308594 36.054688 23.335938 C 36.464844 22.140625 36.191406 21.121094 35.226562 20.226562 C 34.546875 19.59375 33.496094 19.074219 31.902344 18.570312 C 31.210938 18.355469 30.148438 17.980469 29.535156 17.75 C 28.449219 17.339844 28.398438 17.316406 28.152344 16.929688 C 27.460938 15.855469 26.199219 15.429688 24.605469 15.726562 C 24.214844 15.796875 23.941406 15.785156 23.316406 15.683594 C 22.125 15.480469 20.90625 15.503906 19.90625 15.761719 C 18.816406 16.035156 17.382812 16.625 16.566406 17.136719 C 15.703125 17.664062 14.613281 18.757812 14.222656 19.476562 C 13.605469 20.585938 13.394531 21.550781 13.171875 24.257812 C 12.847656 28.148438 12.40625 30.429688 11.621094 32.195312 L 11.414062 32.664062 L 11.117188 32.195312 C 10.214844 30.789062 9.414062 28.789062 9.019531 26.988281 C 8.851562 26.195312 8.832031 25.851562 8.832031 24 C 8.832031 22.148438 8.851562 21.804688 9.019531 21.019531 C 9.726562 17.777344 11.304688 14.976562 13.625 12.816406 C 16.777344 9.878906 21.101562 8.402344 25.363281 8.800781 Z M 23.171875 17.640625 C 24.921875 18.59375 25.269531 20.910156 23.878906 22.300781 C 22.480469 23.691406 20.1875 23.351562 19.226562 21.59375 C 18.988281 21.175781 18.96875 21.078125 18.96875 20.242188 C 18.96875 19.246094 19.082031 18.921875 19.660156 18.28125 C 20.300781 17.570312 20.90625 17.332031 21.953125 17.367188 C 22.609375 17.382812 22.789062 17.425781 23.171875 17.640625 Z M 32.773438 22.726562 C 33.078125 22.96875 33.078125 23.410156 32.773438 23.648438 C 32.644531 23.753906 32.484375 23.828125 32.398438 23.828125 C 32.109375 23.828125 31.800781 23.496094 31.800781 23.1875 C 31.800781 22.882812 32.109375 22.546875 32.398438 22.546875 C 32.484375 22.546875 32.644531 22.625 32.773438 22.726562 Z M 34.957031 24.886719 C 34.957031 24.914062 34.699219 25.101562 34.382812 25.304688 C 32.996094 26.21875 30.941406 27.066406 29.199219 27.414062 C 28.449219 27.570312 28.101562 27.59375 27.257812 27.558594 C 26.082031 27.519531 25.492188 27.347656 24.742188 26.851562 C 24.222656 26.511719 24.195312 26.382812 24.699219 26.636719 C 24.886719 26.722656 25.277344 26.867188 25.585938 26.953125 C 26.34375 27.167969 28.457031 27.167969 29.585938 26.953125 C 31.144531 26.65625 33.632812 25.726562 34.582031 25.074219 C 34.921875 24.84375 34.957031 24.828125 34.957031 24.886719 Z M 34.957031 24.886719 " />
        <path style=" stroke:none;fill-rule:nonzero;fill:#000000;fill-opacity:1;"
            d="M 20.878906 18.425781 C 19.660156 19.046875 19.351562 20.609375 20.265625 21.617188 C 20.726562 22.128906 21.160156 22.328125 21.824219 22.328125 C 23.003906 22.328125 23.90625 21.421875 23.890625 20.242188 C 23.871094 18.679688 22.285156 17.714844 20.878906 18.425781 Z M 20.878906 18.425781 " />
    </g>
</svg>