<svg xmlns="http://www.w3.org/2000/svg" xmlns:xlink="http://www.w3.org/1999/xlink" width="48px" height="48px" viewBox="0 0 48 48" version="1.1">
<g id="surface1">
<path style=" stroke:none;fill-rule:nonzero;fill:#000000;fill-opacity:1;" d="M 21.839844 5.230469 C 20.460938 5.484375 19.355469 5.855469 18.191406 6.457031 C 17.183594 6.972656 15.707031 8.039062 15.191406 8.617188 C 15.058594 8.761719 14.820312 8.878906 14.652344 8.878906 C 14.125 8.878906 13.117188 8.328125 12.40625 7.65625 C 11.664062 6.960938 11.664062 7.078125 12.421875 8.398438 C 13.90625 11.027344 17.015625 14.015625 20.363281 16.03125 C 21.070312 16.453125 21.707031 16.800781 21.769531 16.800781 C 21.828125 16.800781 22.175781 16.65625 22.546875 16.464844 C 23.496094 16.007812 24.625 16.007812 25.585938 16.476562 L 26.269531 16.8125 L 26.902344 16.488281 C 30.226562 14.820312 34.464844 10.824219 35.890625 8.015625 C 36.214844 7.367188 36.371094 6.886719 36.109375 7.355469 C 35.914062 7.691406 34.691406 8.542969 34.054688 8.785156 L 33.480469 9 L 32.964844 8.542969 C 30.949219 6.71875 28.8125 5.652344 26.328125 5.21875 C 25.078125 5.003906 23.0625 5.003906 21.839844 5.230469 Z M 21.839844 5.230469 "/>
<path style=" stroke:none;fill-rule:nonzero;fill:#000000;fill-opacity:1;" d="M 34.957031 12.382812 C 34.824219 12.601562 34.378906 13.175781 33.960938 13.667969 C 33.214844 14.53125 33.203125 14.554688 33.347656 14.929688 C 33.757812 15.925781 33.839844 16.273438 33.851562 17.027344 C 33.863281 17.484375 33.804688 18.058594 33.71875 18.324219 C 33.238281 19.777344 31.667969 20.929688 29.890625 21.097656 C 29.136719 21.179688 29.101562 21.191406 29.125 21.480469 C 29.195312 22.621094 29.269531 23.074219 29.375 23.148438 C 29.449219 23.183594 30.347656 23.699219 31.367188 24.300781 C 32.398438 24.886719 33.214844 25.429688 33.203125 25.5 C 33.179688 25.558594 32.734375 25.859375 32.207031 26.148438 C 29.832031 27.457031 29.363281 27.78125 28.777344 28.5 C 27.589844 29.964844 26.257812 33.226562 24.78125 38.339844 C 24.46875 39.394531 24.179688 40.308594 24.121094 40.367188 C 23.988281 40.5 24.046875 40.703125 23.113281 37.488281 C 22.03125 33.839844 21.589844 32.605469 20.640625 30.660156 C 19.488281 28.308594 19.09375 27.898438 16.738281 26.566406 C 15.71875 26.003906 14.878906 25.488281 14.878906 25.441406 C 14.878906 25.378906 15.804688 24.816406 16.921875 24.179688 L 18.960938 23.003906 L 18.984375 22.246094 C 18.984375 21.828125 18.996094 21.421875 19.007812 21.335938 C 19.019531 21.253906 18.816406 21.179688 18.515625 21.167969 C 17.351562 21.109375 16.054688 20.496094 15.253906 19.621094 C 14.148438 18.421875 13.933594 16.789062 14.664062 15.097656 C 14.953125 14.425781 15.070312 14.675781 13.691406 13.03125 C 13.273438 12.527344 12.886719 12.121094 12.851562 12.121094 C 12.730469 12.132812 11.976562 13.933594 11.6875 14.929688 C 11.292969 16.273438 11.160156 17.832031 11.160156 21.300781 C 11.160156 22.96875 11.101562 25.042969 11.027344 25.933594 C 10.789062 28.859375 9.863281 32.386719 8.664062 34.96875 L 8.183594 35.988281 L 10.261719 34.320312 C 11.410156 33.394531 12.371094 32.640625 12.40625 32.640625 C 12.433594 32.640625 13.152344 33.769531 13.992188 35.148438 L 15.527344 37.65625 L 17.148438 36.121094 C 18.730469 34.621094 18.78125 34.597656 18.960938 34.835938 C 19.175781 35.148438 20.890625 37.921875 22.65625 40.824219 C 23.363281 42 23.988281 42.9375 24.046875 42.925781 C 24.109375 42.898438 25.285156 41.050781 26.664062 38.820312 C 28.042969 36.574219 29.21875 34.726562 29.28125 34.703125 C 29.339844 34.679688 30.070312 35.316406 30.925781 36.109375 C 31.765625 36.910156 32.496094 37.558594 32.53125 37.558594 C 32.578125 37.558594 33.253906 36.515625 34.03125 35.257812 C 34.800781 33.984375 35.507812 32.867188 35.578125 32.785156 C 35.6875 32.664062 36.121094 32.953125 37.726562 34.246094 C 38.832031 35.148438 39.78125 35.902344 39.828125 35.929688 C 39.875 35.964844 39.636719 35.316406 39.289062 34.5 C 38.269531 32.125 37.558594 29.542969 37.1875 26.878906 C 37.117188 26.316406 37.007812 23.746094 36.960938 21.179688 C 36.863281 16.1875 36.816406 15.828125 36.179688 14.039062 C 35.855469 13.152344 35.316406 12 35.230469 12 C 35.207031 12 35.074219 12.179688 34.957031 12.382812 Z M 34.957031 12.382812 "/>
<path style=" stroke:none;fill-rule:nonzero;fill:#000000;fill-opacity:1;" d="M 16.488281 16.511719 C 16.246094 17.820312 16.882812 18.683594 18.300781 18.949219 C 18.851562 19.054688 19.738281 18.960938 20.328125 18.730469 C 20.664062 18.601562 20.664062 18.589844 19.355469 17.808594 C 18.636719 17.375 17.761719 16.8125 17.425781 16.546875 C 17.074219 16.296875 16.738281 16.078125 16.679688 16.078125 C 16.621094 16.078125 16.535156 16.273438 16.488281 16.511719 Z M 16.488281 16.511719 "/>
<path style=" stroke:none;fill-rule:nonzero;fill:#000000;fill-opacity:1;" d="M 30.480469 16.738281 C 29.988281 17.089844 29.101562 17.640625 28.511719 17.988281 L 27.445312 18.601562 L 27.898438 18.792969 C 28.234375 18.925781 28.632812 18.972656 29.339844 18.9375 C 30.167969 18.910156 30.394531 18.851562 30.816406 18.574219 C 31.390625 18.191406 31.714844 17.640625 31.714844 17.039062 C 31.714844 16.558594 31.585938 16.078125 31.464844 16.09375 C 31.414062 16.09375 30.972656 16.390625 30.480469 16.738281 Z M 30.480469 16.738281 "/>
<path style=" stroke:none;fill-rule:nonzero;fill:#000000;fill-opacity:1;" d="M 23.003906 18.601562 C 21.816406 19.355469 21.265625 20.578125 21.132812 22.738281 C 21.085938 23.53125 21.011719 24.253906 20.964844 24.324219 C 20.914062 24.40625 20.496094 24.671875 20.039062 24.925781 C 19.570312 25.164062 19.199219 25.402344 19.199219 25.441406 C 19.199219 25.476562 19.5 25.714844 19.871094 25.980469 C 21.335938 27.023438 22.585938 29.050781 23.460938 31.800781 C 23.699219 32.554688 23.929688 33.265625 23.964844 33.359375 C 23.988281 33.457031 24.300781 32.722656 24.648438 31.738281 C 25.777344 28.511719 26.867188 26.808594 28.464844 25.789062 L 29.050781 25.402344 L 28.210938 24.9375 C 27.742188 24.683594 27.289062 24.347656 27.191406 24.203125 C 27.085938 24.035156 27 23.449219 26.964844 22.558594 C 26.902344 20.867188 26.617188 20.015625 25.835938 19.1875 C 24.875 18.15625 23.988281 17.976562 23.003906 18.601562 Z M 23.003906 18.601562 "/>
</g>
</svg>